<svg clip-rule="evenodd" fill-rule="evenodd" stroke-linejoin="round" stroke-miterlimit="2" viewBox="0 0 4267 4500" xmlns="http://www.w3.org/2000/svg"><path d="m2133.39 19.63c37.621 0 112.556 20.35 211.227 62.131 192.915 81.689 499.478 243.633 799.501 416.926 300.023 173.294 593.491 357.927 760.66 484.223 85.495 64.591 140.573 119.331 159.38 151.922 18.806 32.588 38.649 107.674 51.811 214.033 25.738 207.982 38.821 554.555 38.811 901.138-.01 346.582-13.114 693.155-38.863 901.137-13.168 106.359-33.015 181.444-51.823 214.032-18.809 32.59-73.889 87.329-159.386 151.919-167.177 126.297-460.655 310.929-760.688 484.222-300.033 173.294-606.605 335.238-799.525 416.926-98.672 41.781-173.608 62.131-211.229 62.131-37.62 0-112.556-20.35-211.226-62.131-192.915-81.689-499.478-243.633-799.501-416.926-300.024-173.294-593.491-357.927-760.661-484.223-85.494-64.591-140.572-119.331-159.38-151.922-18.806-32.588-38.649-107.674-51.81-214.033-25.738-207.982-38.821-554.555-38.811-901.138.01-346.582 13.113-693.155 38.863-901.137 13.168-106.359 33.014-181.444 51.822-214.032 18.81-32.59 73.89-87.329 159.387-151.919 167.177-126.297 460.655-310.929 760.687-484.222 300.034-173.294 606.605-335.238 799.525-416.926 98.672-41.781 173.609-62.131 211.229-62.131zm-1775.59 1245.24c-5.891 26.276-10.577 63.041-16.098 107.631-25.074 202.523-37.395 540.017-37.405 877.501s12.292 674.978 37.354 877.5c.683 5.517 1.353 10.914 2.014 16.186 137.337-130.554 316.637-259.364 485.122-355.176-51.456-417.314-30.265-856.661 61.481-1265.57-173.418-103.156-354.948-190.906-532.468-258.072zm1734.59-1043.85c-24.918 8.29-56.991 21.748-95.205 37.929-187.851 79.542-486.164 237.62-778.314 406.36-276.434 159.663-547.364 328.881-713.615 450.805 171.643 70.079 345.32 157.508 511.329 258.238 333.282-249.371 720.27-447.624 1115.94-571.098 4.344-196.026-10.402-400.253-40.14-582.234zm1772.09 974.801c-19.248-16.609-45.169-36.313-75.705-59.383-162.777-122.978-448.769-302.389-740.909-471.129-279.682-161.545-565.014-313.317-753.666-395.761 24.863 182.081 35.924 380.252 29.833 569.777 384.621 165.124 751.606 403.12 1057.24 686.355 168.075-96.701 332.314-223.441 483.209-329.859zm43.174 2044.39c6.462-26.522 11.401-65.172 17.288-112.72 25.073-202.523 37.395-540.017 37.405-877.501.009-329.364-11.708-658.736-35.567-862.648-152.866 109.071-317.995 232.993-485.96 325.556 47.922 412.437 25.214 845.3-66.117 1248.24 172.168 107.916 355.285 205.349 532.951 279.069zm-1713.09 1031.5c21.26-8.027 46.365-18.589 74.892-30.668 187.851-79.542 486.164-237.62 778.313-406.36 275.098-158.892 544.746-327.245 711.198-449.033-173.072-77.21-349.063-173.767-514.482-279.175-330.32 246.15-712.963 442.136-1104.33 565.047-3.772 200.948 14.873 409.141 54.411 600.189zm-1763.41-943.881c13.872 10.879 29.562 22.771 46.706 35.724 162.778 122.978 448.77 302.389 740.91 471.129 289.715 167.34 585.493 324.194 773.59 404.363-34.469-193.505-49.593-400.176-43.929-599.207-379.222-162.006-741.531-394.922-1045.08-672.3-168.956 98.197-347.456 230.321-472.197 360.291zm632.567-1695.85c-78.453 386.552-91.338 798.558-36.736 1187.85 274.272 251.92 599.709 465.491 941.656 618.809 1.863-70.013 4.064-138.349 6.508-204.557l3.55-96.146 192.293 7.099-3.55 96.147c-2.637 71.421-4.988 145.344-6.932 221.191 367.736-125.475 724.413-318.017 1029.33-556.231 79.024-354.967 102.023-733.908 67.477-1098.69-67.371 34.981-132.881 68.601-196.093 100.722l-85.773 43.585-87.171-171.547 85.774-43.585c72.355-36.767 147.745-75.513 225.503-116.029-296.754-263.83-649.444-483.121-1016.43-631.552-349.435 109.852-691.5 281.157-991.648 495.76 57.237 35.485 112.978 70.761 166.914 105.488l80.869 52.066-104.133 161.736-80.868-52.066c-61.299-39.467-124.967-79.656-190.538-120.049zm967.47 664.229c-19.216-14.878-99.011-76.229-222.77-165.725l-77.937-56.36 112.719-155.873 77.937 56.359c115.728 83.688 193.943 143.386 221.739 164.807 31.797-14.477 115.928-53.058 238.893-111.483l86.902-41.289 82.579 173.803-86.901 41.29c-123.855 58.847-208.861 97.836-241.6 112.743-2.933 33.509-10.902 127.639-20.4 265.591l-6.609 95.985-191.97-13.218 6.609-95.984c9.734-141.369 17.893-237.425 20.809-270.646z"/></svg>