<?xml version="1.0" encoding="UTF-8" standalone="no"?><!DOCTYPE svg PUBLIC "-//W3C//DTD SVG 1.1//EN" "http://www.w3.org/Graphics/SVG/1.1/DTD/svg11.dtd"><svg width="100%" height="100%" viewBox="0 0 4267 4500" version="1.1" xmlns="http://www.w3.org/2000/svg" xmlns:xlink="http://www.w3.org/1999/xlink" xml:space="preserve" xmlns:serif="http://www.serif.com/" style="fill-rule:evenodd;clip-rule:evenodd;stroke-linejoin:round;stroke-miterlimit:2;"><g id="Flattened"><path d="M2133.39,133.464c34.502,-0 102.997,19.433 193.488,57.751c184.487,78.119 477.631,233.036 764.546,398.758c286.916,165.723 567.591,342.244 727.457,463.022c78.409,59.238 129.475,108.859 146.723,138.749c17.248,29.888 34.666,98.939 46.738,196.485c24.613,198.897 37.071,530.331 37.061,861.773c-0.009,331.441 -12.487,662.876 -37.111,861.773c-12.077,97.545 -29.499,166.596 -46.748,196.484c-17.251,29.889 -68.319,79.509 -146.731,138.746c-159.873,120.779 -440.558,297.3 -727.482,463.022c-286.925,165.722 -580.078,320.639 -764.569,398.758c-90.493,38.318 -158.989,57.751 -193.491,57.751c-34.502,0 -102.997,-19.433 -193.488,-57.751c-184.487,-78.119 -477.631,-233.036 -764.547,-398.758c-286.915,-165.723 -567.59,-342.244 -727.456,-463.022c-78.409,-59.238 -129.475,-108.859 -146.724,-138.749c-17.248,-29.888 -34.666,-98.939 -46.737,-196.485c-24.613,-198.897 -37.071,-530.331 -37.062,-861.773c0.01,-331.441 12.487,-662.876 37.112,-861.773c12.077,-97.545 29.499,-166.596 46.748,-196.484c17.251,-29.889 68.319,-79.509 146.73,-138.746c159.873,-120.779 440.558,-297.3 727.483,-463.022c286.925,-165.722 580.078,-320.639 764.569,-398.758c90.493,-38.318 158.989,-57.751 193.491,-57.751Zm-768.029,1693.38c-52.774,270.848 -60.728,558.353 -22.578,830.344c195.032,179.139 426.271,331.14 669.312,440.579c2.404,-80.612 6.149,-159.533 10.708,-234.967l137.249,8.294c-4.772,78.981 -8.641,161.856 -10.968,246.486c264.071,-89.629 520.303,-227.703 739.201,-398.716c55.797,-250.636 72.506,-518 49.078,-775.804c-60.2,30.958 -119.612,60.443 -177.134,88.206l-59.767,-123.831c65.315,-31.524 133.114,-65.308 201.72,-100.976c-213.484,-191.292 -468.152,-350.267 -733.259,-457.493c-255.548,80.336 -505.579,206.668 -723.632,365.087c68.961,38.931 135.851,78.229 199.395,116.656l-71.152,117.659c-66.192,-40.028 -136.08,-81.022 -208.173,-121.524Zm851.54,444.787c-6.087,46.106 -17.146,134.552 -28.715,250.249l-136.818,-13.681c10.012,-100.129 19.66,-180.265 26.157,-231.027c-38.081,-26.883 -111.107,-77.688 -207.892,-141.542l75.721,-114.772c86.31,56.943 154.109,103.73 195.79,132.954c40.297,-15.953 126.82,-50.849 240.813,-100.443l54.855,126.084c-95.932,41.737 -172.812,73.268 -219.911,92.178Zm-971.753,-541.453c-336.382,-203.727 -719.346,-360.815 -842.279,-409.257c-4.181,23.336 -8.02,51.714 -12.042,84.197c-24.141,194.995 -36.06,519.942 -36.07,844.882c-0.009,324.94 11.891,649.887 36.021,844.882c3.609,29.164 7.071,55.018 10.766,76.886c120.52,-95.188 453.196,-349.305 799.532,-537.571c-36.686,-298.117 -21.497,-611.942 44.072,-904.019Zm8.594,1031.92c-349.341,191.7 -681.789,449.574 -781.888,529.373c16.612,13.646 36.441,28.924 58.811,45.825c156.728,118.407 432.061,291.197 713.344,453.666c281.281,162.468 568.524,314.622 749.389,391.208c22.905,9.699 43.703,18.303 62.154,25.407c-21.27,-158.653 -69.702,-573.459 -54.575,-964.543c-271.182,-115.883 -530.25,-282.51 -747.235,-480.936Zm883.989,503.83c-13.5,398.973 39.389,818.8 57.384,947.595c22.107,-8.014 48.294,-18.761 78.033,-31.353c180.869,-76.586 468.121,-228.74 749.412,-391.209c281.292,-162.468 556.636,-335.259 713.37,-453.666c17.919,-13.537 34.208,-26.034 48.518,-37.484c-158.018,-66.037 -534.06,-231.509 -857.127,-437.789c-236.169,175.987 -509.767,316.089 -789.59,403.906Zm882.64,-507.712c330.282,207.936 711.13,371.291 842.602,425.343c4.502,-24.15 8.578,-54.087 12.86,-88.678c24.142,-194.995 36.061,-519.942 36.07,-844.882c0.01,-324.94 -11.89,-649.887 -36.021,-844.882c-2.936,-23.728 -5.775,-45.266 -8.721,-64.248c-138.812,107.179 -464.692,348.858 -799.493,525.692c34.192,294.626 17.949,603.824 -47.297,891.655Zm5.412,-1025.13c336.997,-181.093 660.469,-425.282 778.023,-517.051c-18.265,-15.477 -41.246,-33.258 -67.811,-53.328c-156.727,-118.407 -432.061,-291.197 -713.343,-453.666c-281.282,-162.468 -568.524,-314.622 -749.389,-391.208c-19.492,-8.254 -37.458,-15.715 -53.75,-22.133c21.925,170.329 65.61,569.403 50.297,946.37c275.061,118.116 537.491,288.386 755.973,491.016Zm-892.582,-517.014c13.508,-386.129 -34.861,-791.158 -53.915,-932.343c-23.648,8.226 -52.486,20.009 -85.773,34.104c-180.869,76.586 -468.121,228.74 -749.413,391.209c-281.291,162.468 -556.635,335.259 -713.37,453.666c-19.446,14.692 -36.973,28.157 -52.134,40.39c151.034,60.533 528.326,219.495 856.863,421.113c238.25,-178.244 514.899,-319.932 797.742,-408.139Z"/></g></svg>