<svg clip-rule="evenodd" fill-rule="evenodd" stroke-linecap="round" stroke-linejoin="round" stroke-miterlimit="1.5" viewBox="0 0 4267 4267" xmlns="http://www.w3.org/2000/svg"><g stroke="#000"><circle cx="2129.42" cy="2129.7" fill="none" r="1978.91" stroke-width="168.08"/><path d="m2123.17 2490.76c-3.116-.842-6.122-2.089-8.939-3.72-6.483-3.753-11.864-9.147-15.602-15.639-4.264-7.406-6.504-15.805-6.494-24.351.012-9.705 2.578-19.236 7.441-27.635 5.5-9.5 13.404-17.385 22.917-22.862 10.724-6.174 22.885-9.417 35.259-9.402 13.91.017 27.569 3.694 39.607 10.663 13.495 7.814 24.697 19.042 32.478 32.557 8.704 15.118 13.276 32.261 13.255 49.707-.024 19.477-5.174 38.605-14.933 55.462-10.877 18.788-26.508 34.381-45.322 45.214-20.939 12.055-44.681 18.386-68.842 18.357-26.852-.032-53.223-7.132-76.462-20.587-25.797-14.935-47.208-36.398-62.081-62.23-16.493-28.647-25.155-61.13-25.116-94.184.044-36.62 9.727-72.584 28.075-104.275 20.31-35.08 49.496-64.196 84.625-84.422 38.854-22.37 82.913-34.119 127.748-34.065 49.556.059 98.224 13.163 141.111 37.992 47.375 27.428 86.695 66.843 114.009 114.284 30.155 52.375 45.992 111.766 45.92 172.202-.08 66.69-17.714 132.183-51.128 189.898-36.855 63.658-89.818 116.494-153.565 153.196-70.282 40.465-149.978 61.717-231.078 61.619-89.381-.107-177.16-23.74-254.513-68.524-85.225-49.342-155.96-120.247-205.096-205.59-54.12-94-82.543-200.589-82.413-309.055.144-119.435 31.724-236.729 91.566-340.091 65.878-113.788 160.547-208.23 274.493-273.835 125.411-72.205 267.619-110.126 412.33-109.952 159.24.192 315.624 42.296 453.434 122.082 151.618 87.78 277.458 213.923 364.873 365.751 96.157 167.013 146.658 356.395 146.426 549.111-.254 211.958-56.298 420.114-162.498 603.548-116.787 201.721-284.615 369.146-486.616 485.448-222.112 127.88-473.973 195.041-730.267 194.733-281.78-.339-558.505-74.844-802.364-216.027-268.079-155.205-490.58-378.242-645.14-646.694-169.896-295.086-259.123-629.696-258.714-970.196.013-10.232-8.284-18.549-18.516-18.561s-18.549 8.285-18.561 18.516c-.417 347.009 90.515 688.014 263.658 988.741 157.808 274.092 384.984 501.815 658.696 660.282 249.491 144.444 532.608 220.67 820.896 221.017 262.803.316 521.06-68.551 748.812-199.679 207.641-119.549 380.156-291.65 500.204-499.003 109.461-189.066 167.225-403.614 167.488-622.08.239-199.225-51.967-395.002-151.372-567.656-90.662-157.468-221.177-288.298-378.428-379.339-143.442-83.046-306.218-126.872-471.966-127.071-151.22-.182-299.824 39.445-430.875 114.897-119.586 68.852-218.942 167.969-288.081 287.389-63.103 108.995-96.404 232.68-96.555 358.624-.138 114.975 29.99 227.96 87.358 327.6 52.384 90.983 127.794 166.575 218.651 219.177 82.985 48.045 177.156 73.399 273.046 73.515 87.607.105 173.699-22.852 249.622-66.565 69.388-39.949 127.036-97.46 167.153-166.751 36.675-63.347 56.029-135.232 56.117-208.431.081-66.944-17.462-132.73-50.865-190.746-30.561-53.081-74.556-97.182-127.563-127.871-48.52-28.091-103.58-42.915-159.644-42.983-51.343-.061-101.798 13.393-146.293 39.011-40.77 23.473-74.642 57.264-98.213 97.976-21.609 37.325-33.012 79.68-33.064 122.808-.048 39.563 10.32 78.442 30.06 112.729 18.121 31.473 44.207 57.622 75.637 75.818 28.871 16.715 61.634 25.536 94.994 25.576 30.669.037 60.808-8 87.387-23.302 24.454-14.08 44.771-34.348 58.91-58.769 13.02-22.489 19.891-48.009 19.922-73.995.029-23.953-6.248-47.493-18.2-68.251-11.028-19.155-26.905-35.07-46.033-46.144-17.67-10.23-37.721-15.629-58.139-15.653-18.883-.023-37.44 4.925-53.804 14.347-15.154 8.725-27.744 21.285-36.505 36.417-8.123 14.032-12.41 29.954-12.43 46.167-.018 15.055 3.927 29.849 11.439 42.896 6.985 12.132 17.041 22.212 29.156 29.227 11.284 6.533 24.09 9.98 37.128 9.996 12.164.015 24.118-3.173 34.66-9.242 9.851-5.672 18.036-13.837 23.731-23.675 5.332-9.21 8.146-19.661 8.159-30.303.012-9.982-2.604-19.79-7.584-28.441-4.68-8.129-11.418-14.882-19.535-19.582-7.644-4.425-16.318-6.761-25.15-6.771-8.334-.01-16.523 2.173-23.746 6.331-6.828 3.932-12.501 9.592-16.449 16.411-3.741 6.461-5.715 13.793-5.724 21.259-.009 7.089 1.849 14.056 5.386 20.2 3.367 5.847 8.212 10.704 14.051 14.084.847.491 1.711.946 2.59 1.365z" fill="#005cff" stroke-linecap="butt" stroke-miterlimit="2" stroke-width="93.93"/></g></svg>