<svg clip-rule="evenodd" fill-rule="evenodd" stroke-linejoin="round" stroke-miterlimit="2" viewBox="0 0 4267 4500" xmlns="http://www.w3.org/2000/svg"><path d="m2040.38 21.568c37.588-1.569 113.307 15.638 213.634 53.268 196.154 73.572 509.204 222.591 816.193 383.221 306.989 160.631 607.901 332.864 780.193 452.079 88.114 60.97 145.426 113.365 165.577 145.143 20.149 31.776 43.106 105.968 60.691 211.686 34.389 206.729 61.915 552.454 76.359 898.736 14.443 346.281 15.804 693.099-1.249 901.974-8.721 106.815-25.419 182.663-42.852 216.007-17.433 33.346-70.183 90.334-152.912 158.434-161.764 133.158-447.287 329.869-739.832 515.524s-592.096 360.244-781.442 449.906c-96.844 45.86-170.866 69.318-208.454 70.886-37.588 1.569-113.306-15.638-213.634-53.268-196.154-73.572-509.203-222.591-816.193-383.221-306.989-160.631-607.901-332.864-780.192-452.079-88.114-60.97-145.427-113.365-165.577-145.143-20.149-31.776-43.106-105.968-60.692-211.686-34.389-206.729-61.914-552.454-76.358-898.736-14.444-346.281-15.805-693.099 1.249-901.974 8.721-106.815 25.419-182.663 42.851-216.007 17.434-33.346 70.183-90.334 152.913-158.434 161.764-133.158 447.287-329.869 739.831-515.524 292.546-185.655 592.097-360.244 781.442-449.906 96.844-45.86 170.867-69.317 208.454-70.886zm-51.756 210.693c-21.077 8.95-45.99 20.676-74.344 34.103-184.37 87.307-475.831 257.688-760.689 438.465-273.765 173.736-541.445 357.084-701.699 486.195 163.401 59.752 328.995 134.551 488.688 221.404l2.492-8.759 27.076-19.553c341.874-246.879 741.065-440.033 1148.82-556.751-24.399-202.412-71.118-411.957-130.346-595.104zm1822.48 886.125c-18.871-14.413-42.721-31.006-70.19-50.013-167.765-116.082-460.99-283.411-759.913-439.821-292.842-153.228-591.168-295.985-782.763-369.085 50.934 174.88 90.773 366.889 112.73 552.902 363.111 165.8 709.592 399.547 1002.21 675.134 174.368-107.733 343.303-250.981 497.922-369.117zm120.593 2086.37c2.798-3.64 5.047-7.047 6.708-10.224 11.41-21.825 15.883-72.599 21.591-142.513 16.606-203.392 14.842-541.106.778-878.297-13.979-335.14-40.111-669.781-73.307-871.49-137.02 105.968-284.396 226.917-436.068 325.343l3.071 30.129c42.385 415.886 10.934 854.168-89.762 1262.67 182.707 111.055 378.215 210.886 566.989 284.384zm-1673.61 1071.04c24.66-9.303 56.409-24.21 94.306-42.156 184.37-87.307 475.831-257.688 760.689-438.465 248.701-157.831 492.381-323.593 655.061-449.42-161.152-68.837-324.811-153.836-480.238-246.986-331.892 238.126-717.119 425.723-1111.45 542.184 2.432 212.793 30.662 434.135 81.629 634.843zm-1814.72-903.771c20.304 16.509 48.611 36.231 82.392 59.606 167.764 116.082 460.99 283.411 759.913 439.821 283.872 148.535 572.899 287.231 764.861 362.174-38.913-179.255-61.498-370.252-65.884-556.243l-9.289-4.171c-383.797-172.368-749.822-420.923-1054.33-714.988-173.116 113.25-357.135 267.417-477.667 413.801zm-126.395-2024.55c-4.082 25.77-6.981 59.915-10.295 100.515-16.606 203.392-14.843 541.106-.778 878.297 13.17 315.753 37.128 631.065 67.618 835.178 124.553-130.342 284.197-260.099 436.874-360.734-37.963-393.08-10.228-805.426 79.344-1193.19l-7.478-4.138 1.443-2.607c-184.335-103.019-377.947-189.244-566.728-253.325zm2821.05 240.079c-264.781-240.973-572.829-445.991-895.081-594.674-396.89 104.161-788.236 285.793-1124.31 521.731 66.077 37.106 130.317 74.076 192.267 110.451l82.94 48.699-97.398 165.879-82.94-48.699c-48.137-28.264-97.68-56.895-148.409-85.667-74.162 346.353-96.726 711.377-64.685 1060.9 284.151 287.282 630.629 532.355 996.56 705.152-1.241-78.618-1.964-155.23-2.275-229.202l-.405-96.211 192.422-.81.405 96.212c.265 63.062.833 128.062 1.77 194.599 342.9-108.912 676.38-273.953 967.754-479.894 107.104-391.584 145.9-816.358 111.733-1221.44-83.968 48.349-165.259 94.489-243.018 138.112l-83.909 47.073-94.147-167.819 83.909-47.074c66.516-37.315 135.636-76.486 206.816-117.318zm-1125.88 715.177c-19.812-14.075-102.06-72.095-229.393-156.429l-80.187-53.109 106.218-160.374 80.187 53.109c119.069 78.861 199.671 135.294 228.324 155.554 31.176-15.772 113.65-57.778 234.11-121.206l85.132-44.826 89.652 170.263-85.131 44.826c-121.331 63.887-204.664 106.337-236.762 122.577-1.554 33.601-5.647 127.979-9.468 266.205l-2.659 96.175-192.35-5.317 2.658-96.175c3.916-141.649 8.121-237.96 9.669-271.273z"/></svg>